<svg class="logo" xmlns="http://www.w3.org/2000/svg" viewBox="0 0 448.79 89.68">
    <g class="mark c">
        <rect class="bg" width="89.68" height="89.68"></rect>
        <polygon points="11.25 45.54 11.25 78.98 20.41 78.98 20.41 74.3 16.65 74.3 16.65 45.54 11.25 45.54"></polygon>
        <rect x="18.5" y="45.54" width="5.96" height="5.96"></rect>
        <path
            d="M20.2,10.11c1.71.07,4.26,1.85,4.26,4.05v9.72a3.54,3.54,0,0,1-2.13,3.55,3.07,3.07,0,0,1,2.13,3.06V44.05h-6V30.7c-.07-1.2-.72-.92-1.85-.92V44.05h-5.4V10.11S18.5,10,20.2,10.11ZM16.65,15V25h1.21c.64,0,.64-.76.64-.76V15.82c0-.81-.64-.81-.64-.81Z">
        </path>
        <polygon
            points="30.43 45.54 31.55 51.51 32.34 51.51 33.05 48.66 33.61 51.51 34.4 51.51 35.6 45.54 34.54 45.54 33.97 48.17 33.48 45.54 32.7 45.54 32.05 48.02 31.63 45.54 30.43 45.54">
        </polygon>
        <path
            d="M38,51.35a.88.88,0,0,1-.47.16,1.34,1.34,0,0,1-1-1.38,2.44,2.44,0,0,1,1.93-2.39.29.29,0,0,0,.2-.3V47c0-.33-.67-.34-.66,0a2.07,2.07,0,0,1,0,.24c0,.08,0,.25-.25.25h-.61c-.12,0-.42.1-.42-.49a1.8,1.8,0,0,1,2-1.41c.89,0,1.22.48,1.22,1.9v3.28c0,.8-.31.76-.47.79H39.2c-.45,0-.47-.17-.5-.31s-.38,0-.59.09h0m1.32.21M38,51.35h0l0,0h0m0,0,.59-5.77h0m0,3.19h0A1,1,0,0,0,37.88,50c.09.34.8.39.79-.87Z">
        </path>
        <path d="M43.78,45.81h-.66c0-.66,0-.66.84-.66v-1.1c-2.47,0-2,.57-2.05,1.76h-.42V47h.42v4.56h1.21V47h.65"></path>
        <path d="M47.62,45.81H47c0-.66,0-.66.84-.66v-1.1c-2.47,0-2,.57-2,1.76h-.43V47h.43v4.56H47V47h.65"></path>
        <rect x="49.73" y="44.05" width="1.21" height="7.46"></rect>
        <path
            d="M52.86,47.44c0-2.5,3.15-2.51,3.15,0V49H54.35c-.22,0-.32-.13-.32.21v.35c0,1.57.82,1.47.82,0H56c0,2.34-1.25,2-2,2s-1.17-.68-1.17-2V47.44ZM54,48h.82C54.85,46.1,53.83,46.88,54,48Z">
        </path>
        <path
            d="M62.94,47.1v.71c0,.33,1.18.38,1.18,0v-.66a1.6,1.6,0,1,0-3.2,0v2.38c0,3,3.57,2.68,3.2,0,0-.26-.67-.22-.67-.22-.23,0-.51,0-.51.22v.68c0,.41-.77.67-.79,0V47c0-.57.79-.81.79,0v.07">
        </path>
        <path
            d="M67,51.4a.86.86,0,0,1-.48.15,1.33,1.33,0,0,1-1-1.38,2.41,2.41,0,0,1,1.93-2.38.3.3,0,0,0,.2-.31V47c0-.33-.68-.35-.67,0,0,0,0,.15,0,.23s0,.25-.25.25H66c-.11,0-.41.1-.41-.48s.73-1.41,2-1.41c.89,0,1.22.47,1.22,1.89v3.28c0,.8-.32.76-.48.79h-.21c-.45,0-.47-.17-.52-.3s-.37,0-.58.08h0m-.06,0s0,0,0,0l0,0h0m0,0,.59-5.77h0m0,3.24h0A1,1,0,0,0,66.8,50c.09.35.79.4.79-.87Z">
        </path>
        <path
            d="M70.61,44.05s0,7.47,0,7.46,1.1,0,1.1,0V49.29h.4l.45,2.22h1.18l-1-3.2v-.39l1-1.9H72.62l-.73,1.42h-.18V44.05Z">
        </path>
        <path
            d="M75,47.44c0-2.5,3.15-2.51,3.15,0V49H76.5c-.22,0-.31-.13-.31.21v.35c0,1.57.81,1.47.81,0h1.16c0,2.34-1.24,2-2,2s-1.18-.68-1.18-2V47.44Zm1.18.57H77C77,46.1,76,46.88,76.19,48Z">
        </path>
    </g>
    <g class="text">
        <path class="tx c"
            d="M122.8,47.57l10.64,14.65H127.1l-9.82-14.07h-.93V62.22h-5.19V27.85h6.08q6.81,0,9.84,2.56a9.43,9.43,0,0,1,3.34,7.53,9.73,9.73,0,0,1-2.1,6.27A9.3,9.3,0,0,1,122.8,47.57Zm-6.45-3.94H118q7.36,0,7.36-5.63,0-5.28-7.16-5.27h-1.85Z">
        </path>
        <path class="tx c"
            d="M140.71,59.73a3.09,3.09,0,0,1,6.18,0A3,3,0,0,1,146,62a3.14,3.14,0,0,1-4.38,0A3,3,0,0,1,140.71,59.73Z">
        </path>
        <path class="tx c" d="M161.28,27.85V57.34h10.1v4.88H156.09V27.85Z"></path>
        <path class="tx c"
            d="M196.69,40.54l5.67,12.38,6.13-14.36,6.16,14.36,5.61-12.38h5.61l-11.35,23.3-6-14-6.1,14-11.33-23.3Z">
        </path>
        <path class="tx c"
            d="M247.51,40.54h5V62.22h-5V60a9.62,9.62,0,0,1-14.09-.36,12.1,12.1,0,0,1-2.91-8.28,11.7,11.7,0,0,1,2.91-8.12,9.4,9.4,0,0,1,7.3-3.25,9.22,9.22,0,0,1,6.79,3.11ZM235.63,51.31a7.53,7.53,0,0,0,1.67,5.08,5.46,5.46,0,0,0,4.32,2,5.73,5.73,0,0,0,4.49-1.92,7.36,7.36,0,0,0,1.71-5,7.38,7.38,0,0,0-1.71-5,5.65,5.65,0,0,0-4.45-1.93,5.53,5.53,0,0,0-4.32,2A7.22,7.22,0,0,0,235.63,51.31Z">
        </path>
        <path class="tx c"
            d="M266.33,45.21v17h-5v-17h-1.78V40.54h1.78V32.17c0-2.73.47-4.66,1.43-5.79A7,7,0,0,1,268.42,24a9.78,9.78,0,0,1,3.36.78v5.12l-.51-.27a6.38,6.38,0,0,0-2.67-.82,1.8,1.8,0,0,0-1.8,1,9.19,9.19,0,0,0-.47,3.6v7.15h5.45v4.67Z">
        </path>
        <path class="tx c"
            d="M282.14,45.21v17h-5v-17h-1.78V40.54h1.78V32.17q0-4.09,1.43-5.79a7,7,0,0,1,5.7-2.36,9.78,9.78,0,0,1,3.36.78v5.12l-.52-.27a6.38,6.38,0,0,0-2.67-.82,1.81,1.81,0,0,0-1.8,1,9.19,9.19,0,0,0-.47,3.6v7.15h5.46v4.67Z">
        </path>
        <path class="tx c" d="M297.78,24.62v37.6h-5V24.62Z"></path>
        <path class="tx c"
            d="M326.14,52.56H310.61a6.57,6.57,0,0,0,1.73,4.25,5.3,5.3,0,0,0,3.94,1.56,5.17,5.17,0,0,0,3.1-.89,12.48,12.48,0,0,0,2.73-3.3l4.23,2.36a16.1,16.1,0,0,1-2.07,2.86,10.6,10.6,0,0,1-2.33,2,9.48,9.48,0,0,1-2.7,1.13,13.48,13.48,0,0,1-3.14.35,10.24,10.24,0,0,1-7.79-3.11,11.75,11.75,0,0,1-2.94-8.33,12,12,0,0,1,2.85-8.32,9.82,9.82,0,0,1,7.62-3.14A9.72,9.72,0,0,1,323.4,43c1.85,2,2.77,4.81,2.77,8.39ZM321,48.46a4.79,4.79,0,0,0-5.05-4,5.13,5.13,0,0,0-1.72.28,4.67,4.67,0,0,0-1.45.8,5,5,0,0,0-1.13,1.25,5.84,5.84,0,0,0-.71,1.67Z">
        </path>
        <path class="tx c"
            d="M367.12,41.47v6.66a12.34,12.34,0,0,0-3.07-2.87,6,6,0,0,0-3.14-.8,6.19,6.19,0,0,0-4.7,2,7,7,0,0,0-1.87,5,7.13,7.13,0,0,0,1.8,5,6.08,6.08,0,0,0,4.66,2,6.35,6.35,0,0,0,3.18-.78,12.41,12.41,0,0,0,3.14-2.94v6.61a13.11,13.11,0,0,1-6.1,1.58,11.67,11.67,0,0,1-8.42-3.25,10.86,10.86,0,0,1-3.38-8.12,11,11,0,0,1,3.43-8.19,11.57,11.57,0,0,1,8.41-3.34A12.62,12.62,0,0,1,367.12,41.47Z">
        </path>
        <path class="tx c"
            d="M390.23,40.54h5V62.22h-5V60a9.62,9.62,0,0,1-14.09-.36,12.1,12.1,0,0,1-2.92-8.28,11.71,11.71,0,0,1,2.92-8.12,9.39,9.39,0,0,1,7.3-3.25,9.24,9.24,0,0,1,6.79,3.11ZM378.34,51.31A7.58,7.58,0,0,0,380,56.39a5.49,5.49,0,0,0,4.32,2,5.75,5.75,0,0,0,4.5-1.92,7.41,7.41,0,0,0,1.71-5,7.43,7.43,0,0,0-1.71-5,5.69,5.69,0,0,0-4.46-1.93,5.51,5.51,0,0,0-4.31,2A7.23,7.23,0,0,0,378.34,51.31Z">
        </path>
        <path class="tx c"
            d="M408.87,24.62V47.55l7.05-7h6.73l-9.42,9.1,10.11,12.58h-6.5l-7.17-9.15-.8.8v8.35h-5V24.62Z"></path>
        <path class="tx c"
            d="M448.59,52.56H433.05a6.58,6.58,0,0,0,1.74,4.25,5.27,5.27,0,0,0,3.94,1.56,5.14,5.14,0,0,0,3.09-.89,12.48,12.48,0,0,0,2.74-3.3l4.23,2.36a16.1,16.1,0,0,1-2.07,2.86,10.89,10.89,0,0,1-2.34,2,9.54,9.54,0,0,1-2.69,1.13,13.54,13.54,0,0,1-3.14.35,10.24,10.24,0,0,1-7.79-3.11,11.71,11.71,0,0,1-2.94-8.33,12,12,0,0,1,2.85-8.32A10.85,10.85,0,0,1,445.85,43c1.84,2,2.76,4.81,2.76,8.39Zm-5.14-4.1a4.8,4.8,0,0,0-5.06-4,5.07,5.07,0,0,0-1.71.28,4.84,4.84,0,0,0-1.46.8,5.17,5.17,0,0,0-1.12,1.25,5.84,5.84,0,0,0-.71,1.67Z">
        </path>
    </g>
</svg>