<svg class="toggle-icon df" width="50" height="50" viewBox="0 0 100 100"> 
<g class="top"> <path class="t" d="M83.33 35.29h-7.64a1 1 0 01-1-1V34a1 1 0 00-1-1h-4.12a1 1 0 00-1 1v.25a1 1 0 01-1 1H54.08a1 1 0 01-1-1V34a1 1 0 00-1-1H48a1 1 0 00-1 1v.25a1 1 0 01-1 1H32.47a1 1 0 01-1-1V34a1 1 0 00-1-1h-4.12a1 1 0 00-1 1v.25a1 1 0 01-1 1h-7.68"></path>
 <path class="b" d="M16.67 43.14h7.64a1 1 0 011 1 1 1 0 001 1h4.08a1 1 0 001-1 1 1 0 011-1h13.53a1 1 0 011 1 1 1 0 001 1H52a1 1 0 001-1 1 1 0 011-1h13.53a1 1 0 011 1 1 1 0 001 1h4.08a1 1 0 001-1 1 1 0 011-1h7.64"></path> </g>
 <g class="bottom"> <path class="t" d="M83.33 57h-7.64a1 1 0 01-1-1v-.25a1 1 0 00-1-1h-4.12a1 1 0 00-1 1V56a1 1 0 01-1 1H54.08a1 1 0 01-1-1v-.25a1 1 0 00-1-1H48a1 1 0 00-1 1V56a1 1 0 01-1 1H32.47a1 1 0 01-1-1v-.25a1 1 0 00-1-1h-4.12a1 1 0 00-1 1V56a1 1 0 01-1 1h-7.68"></path> 
 <path class="b" d="M16.67 65h7.64a1 1 0 011 1 1 1 0 001 1h4.08a1 1 0 001-1 1 1 0 011-1h13.53a1 1 0 011 1 1 1 0 001 1H52a1 1 0 001-1 1 1 0 011-1h13.53a1 1 0 011 1 1 1 0 001 1h4.08a1 1 0 001-1 1 1 0 011-1h7.64"></path> </g>
 </svg>
